       The.Adjustment.Bureau.2011.BRRip.XviD-RLF
       ~~~~~~~~~~~~~~~~~~~~~~~~~~~~~~~~~~~~~~~~~~


                        General:


    Complete name                    : rlf-bureau.avi
    Format                           : AVI
    Format/Info                      : Audio Video Interleave
    File size                        : 707 MiB
    Duration                         : 1h 45mn
    Overall bit rate                 : 933 Kbps
    Language                         : English
    Subs                             : Polish, English
    Encoder                          : Ralf

                         Video:

    Format                           : MPEG-4 Visual
    Format profile                   : Advanced Simple@L5
    Format settings, BVOP            : 2
    Format settings, QPel            : No
    Format settings, GMC             : No warppoints
    Format settings, Matrix          : H.263
    Muxing mode                      : Packed bitstream
    Codec ID/Hint                    : XviD
    Duration                         : 1h 45mn
    Bit rate                         : 792 Kbps
    Width                            : 688 pixels
    Height                           : 368 pixels
    Display aspect ratio             : 1.870
    Frame rate                       : 23.976 fps
    Color space                      : YUV
    Chroma subsampling               : 4:2:0
    Bit depth                        : 8 bits
    Scan type                        : Progressive
    Bits/(Pixel*Frame)               : 0.131
    Stream size                      : 600 MiB (85%)
    Writing library                  : XviD 1.2.1 

                         Audio:

    Format                           : MPEG Audio
    Format version                   : Version 1
    Format profile                   : Layer 3
    Codec ID/Hint                    : MP3
    Duration                         : 1h 45mn
    Bit rate                         : 128 Kbps
    Channel(s)                       : 2 channels
    Sampling rate                    : 48.0 KHz
    Stream size                      : 96.9 MiB (14%)
    Alignment                        : Split accross interleaves
    Interleave, duration             : 24 ms 






                        MOVIE INFO:

  The affair between a politician and a ballerina is affected 
         by mysterious forces keeping the lovers apart.

             http://www.imdb.com/title/tt1385826/


                          SOURCE:

                 SiNNERS 720p.BluRay.x264 (THX)


     http://www.leetleech.org/images/48880030545364299398.png
     http://www.leetleech.org/images/12552370974330477645.png
     http://www.leetleech.org/images/49300392896424971935.png
     http://www.leetleech.org/images/17385396445488297151.png
     http://www.leetleech.org/images/28725860480704743565.png


